<svg xmlns="http://www.w3.org/2000/svg" viewBox="0 0 690 280">
  <linearGradient id="a" x1="140" x2="140" y1="296.771" y2="-65.178" gradientUnits="userSpaceOnUse" gradientTransform="matrix(1 0 0 -1 0 280)">
    <stop offset="0" stop-color="#0EB0FB"/>
    <stop offset="1" stop-color="#C93ED6"/>
  </linearGradient>
  <path fill="url(#a)" d="M266.7 194v-6.1 6.1c0 7.2-.2 13.8-.9 19.7-.3 3.3-1 6.5-1.5 9.4-.9 5.1-2.5 9.5-4.3 13-.5 1-1 1.9-1.4 2.7-.4.6-.8 1.3-1.2 2-.5.8-1 1.5-1.5 2.3-1.4 2-3 3.9-4.7 5.7-2.5 2.7-5.3 5.2-8.4 7.3-4.5 3-8.2 5.3-15.3 7.2-3.2.9-7.1 1.7-12 2.3-6.8.8-15.5 1.1-27.5 1.1H88.4c-14.7-.1-24.1-.9-31-2.2-3.3-.6-6.1-1.3-8.6-2.3-4.7-1.8-7.8-3.5-11.4-5.9-6-4-10.9-9.3-14.7-15.2-3.3-5.1-5.7-10.6-7.2-18.6-1.7-9.1-2.2-21.2-2.2-34.6V88.6c0-8.4.2-15.5.9-22 .2-2.2.5-4.3.8-6.4.7-4.2 1.5-7.6 2.6-11 .2-.8.6-1.5.9-2.2 1.2-2.9 2.6-5.6 4.1-8 1.9-2.8 4.1-5.8 6.6-8.4 2.8-2.9 5.5-5.1 8.5-7.1 1.9-1.3 3.8-2.4 5.9-3.4.8-.4 1.7-.8 2.6-1.2 1.5-.7 3.1-1.3 5-1.8 4-1.1 9.4-2.4 16.5-2.9 5.7-.5 12.7-.7 21.3-.8h99c11.4.1 20 .3 26.8 1 4.1.4 7.5 1.1 10.3 1.8 4.1 1 7.2 2.1 9.9 3.3 3 1.4 5.4 2.8 8 4.6 2 1.4 3.7 2.7 5.4 4.3 3.5 3.3 6.6 7 9.1 11 1.8 2.8 3.3 5.9 4.6 9.5 2.1 5.9 3.5 12.9 4 21.2.5 7.1.5 13 .5 21.3l.1 102.6z"/>
  <path fill="#3E3E3F" d="M75.7 169.7c0 3.2 2.6 5.8 5.8 5.8h87.7v-11.7H81.5c-3.2 0-5.8 2.7-5.8 5.9z"/>
  <path fill="#E2E4E5" d="M142.9 48h-32.1v75.1h32.1V92.2c3.2 0 12.7.1 24 6.3 11.2 6.1 24.1 20.3 24.2 41.4-.3 11.5-3.8 22-11.1 30.6l-1.3-1.9c-2.2-3-5.6-4.7-9.3-4.7-3.7 0-7.1 1.7-9.3 4.7l-37.5 53.8H58.1c-3.2 0-5.8 2.6-5.8 5.8v6.7c0 3.2 2.6 5.8 5.8 5.8h163.7c3.2 0 5.8-2.6 5.8-5.8v-6.7c0-3.2-2.6-5.8-5.8-5.8H216L194.9 192c.8-.7 2.7-2.9 2.8-3 12.3-12.8 19.8-30.2 19.8-49.4 0-39.5-32.2-73.3-74.5-73.3l-.1-18.3z"/>
  <path fill="#F0F1F1" d="M142.9 92.2c3.2 0 12.7.1 24 6.3 11.2 6.1 24.1 20.3 24.2 41.4-.3 11.5-3.8 22-11.1 30.6l15 21.5c.8-.7 2.7-2.9 2.8-3 12.3-12.8 19.8-30.2 19.8-49.4 0-39.5-32.2-73.3-74.5-73.3l-.2 25.9z"/>
  <path fill="#FFFFFF" d="M178.6 168.5c-2.2-3-5.6-4.7-9.3-4.7-3.7 0-7.1 1.7-9.3 4.7l-37.5 53.8h26l39.8-39.8-9.7-14z"/>
  <path fill="#3E3E3F" d="M114.9 123.1h23.4v11.7h-23.4z"/>
  <path fill="#5B5C5F" d="M114.9 123.1h11.7v11.7h-11.7z"/>
  <path fill="#3E3E3F" d="M117.8 39.2h17.5V48h-17.5z"/>
  <path fill="#5B5C5F" d="M117.8 39.2h8.8V48h-8.8z"/>
  <path fill="#FFFFFF" d="M110.8 48h15.8v75.1h-15.8z"/>
  <circle cx="169.2" cy="181.4" r="5.8" fill="#5B5C5F"/>
  <g fill="none" stroke="#FFFFFF" stroke-width=".25" opacity=".75" stroke-dasharray="1">
    <path d="M13.6 92.195v95.6M207.8 139.895c0 37.5-30.4 67.9-67.9 67.9s-67.9-30.4-67.9-67.9 30.4-67.9 67.9-67.9 67.9 30.4 67.9 67.9z"/>
    <path d="M250 139.995c0 60.7-49.2 110-110 110s-110-49.2-110-110 49.2-110 110-110 110 49.2 110 110zM30 29.995l220 220M13.6 187.795h252.8M13.6 139.895h252.8M13.6 92.195h252.8M92.3 266.695v-253.4M139.9 13.295v253.3M188 266.695v-253.4M30 249.995l220-220M250 29.995v220M30 29.995h220M30 249.995v-220M250 249.995H30"/>
    <path d="M188 139.895c0 26.3-21.4 47.7-47.9 47.7s-47.9-21.3-47.9-47.7 21.4-47.7 47.9-47.7 47.9 21.4 47.9 47.7z"/>
    <path d="M266.7 193.995v-6.1 6.1c0 7.2-.2 13.8-.9 19.7-.3 3.3-1 6.5-1.5 9.4-.9 5.1-2.5 9.5-4.3 13-.5 1-1 1.9-1.4 2.7-.4.6-.8 1.3-1.2 2-.5.8-1 1.5-1.5 2.3-1.4 2-3 3.9-4.7 5.7-2.5 2.7-5.3 5.2-8.4 7.3-4.5 3-8.2 5.3-15.3 7.2-3.2.9-7.1 1.7-12 2.3-6.8.8-15.5 1.1-27.5 1.1H88.4c-14.7-.1-24.1-.9-31-2.2-3.3-.6-6.1-1.3-8.6-2.3-4.7-1.8-7.8-3.5-11.4-5.9-6-4-10.9-9.3-14.7-15.2-3.3-5.1-5.7-10.6-7.2-18.6-1.7-9.1-2.2-21.2-2.2-34.6v-99.3c0-8.4.2-15.5.9-22 .2-2.2.5-4.3.8-6.4.7-4.2 1.5-7.6 2.6-11 .2-.8.6-1.5.9-2.2 1.2-2.9 2.6-5.6 4.1-8 1.9-2.8 4.1-5.8 6.6-8.4 2.8-2.9 5.5-5.1 8.5-7.1 1.9-1.3 3.8-2.4 5.9-3.4.8-.4 1.7-.8 2.6-1.2 1.5-.7 3.1-1.3 5-1.8 4-1.1 9.4-2.4 16.5-2.9 5.7-.5 12.7-.7 21.3-.8h99c11.4.1 20 .3 26.8 1 4.1.4 7.5 1.1 10.3 1.8 4.1 1 7.2 2.1 9.9 3.3 3 1.4 5.4 2.8 8 4.6 2 1.4 3.7 2.7 5.4 4.3 3.5 3.3 6.6 7 9.1 11 1.8 2.8 3.3 5.9 4.6 9.5 2.1 5.9 3.5 12.9 4 21.2.5 7.1.5 13 .5 21.3l.1 102.6z"/>
  </g>
  <g>
    <g fill="#4F4F4F">
      <path d="M307 156.6c0 2 .6 3.5 1.8 4.3 1.2.9 2.9 1.3 5.1 1.3 1.1 0 2.2-.1 3.4-.3 1.2-.2 2.2-.4 3.1-.8.7.9 1.2 1.8 1.7 2.9.5 1 .7 2.3.7 3.8 0 3-1 5.4-3.1 7.2-2.1 1.9-5.8 2.8-11.1 2.8-6.5 0-11.4-1.6-14.9-4.7s-5.2-8.2-5.2-15.2V108c.8-.2 2-.5 3.5-.8 1.5-.3 3.1-.4 4.8-.4 3.2 0 5.7.6 7.5 1.8 1.8 1.2 2.7 3.8 2.7 7.6v7.5h14.4c.4.9.9 1.9 1.3 3.2.4 1.3.6 2.7.6 4.3 0 2.7-.6 4.7-1.7 5.9-1.1 1.2-2.7 1.8-4.6 1.8h-10v17.7zM348.8 121c4 0 7.6.4 10.8 1.2 3.3.8 6.1 2 8.4 3.7 2.3 1.6 4.1 3.7 5.3 6.3 1.2 2.5 1.9 5.5 1.9 9v24.6c0 1.9-.5 3.5-1.6 4.7-1.1 1.2-2.3 2.3-3.8 3.1-4.8 2.9-11.5 4.3-20.1 4.3-3.9 0-7.4-.4-10.5-1.1-3.1-.7-5.8-1.8-8-3.3-2.2-1.5-4-3.3-5.2-5.6-1.2-2.3-1.8-4.9-1.8-7.9 0-5.1 1.5-8.9 4.5-11.7 3-2.7 7.7-4.4 14-5.1l14.4-1.5v-.8c0-2.1-.9-3.6-2.8-4.6-1.9-.9-4.6-1.4-8.1-1.4-2.8 0-5.5.3-8.1.9-2.6.6-5 1.3-7.2 2.2-1-.7-1.8-1.7-2.4-3-.7-1.4-1-2.8-1-4.2 0-1.9.5-3.4 1.4-4.6.9-1.1 2.3-2.1 4.2-2.9 2.1-.8 4.6-1.4 7.5-1.8 2.9-.3 5.6-.5 8.2-.5zm.9 43.2c1.2 0 2.6-.1 4.1-.4 1.5-.3 2.6-.6 3.4-1V154l-7.9.7c-2.1.1-3.7.6-5.1 1.3-1.3.7-2 1.8-2 3.3 0 1.5.6 2.7 1.7 3.6 1.2.9 3.1 1.3 5.8 1.3zM402.4 121c4.4 0 8.5.6 12.3 1.7 3.8 1.1 7 2.9 9.7 5.2 2.7 2.3 4.8 5.3 6.4 8.9 1.5 3.6 2.3 7.8 2.3 12.7 0 4.7-.7 8.8-2 12.3s-3.2 6.5-5.6 8.9c-2.4 2.4-5.3 4.2-8.7 5.3-3.4 1.2-7.2 1.8-11.4 1.8-3.2 0-6.1-.5-8.8-1.4v18.3c-.7.2-1.9.5-3.5.7-1.6.3-3.3.4-5 .4-1.6 0-3.1-.1-4.3-.3-1.3-.2-2.4-.7-3.2-1.3s-1.5-1.6-2-2.7c-.4-1.1-.7-2.6-.7-4.5v-52.8c0-2 .4-3.6 1.3-4.8.8-1.2 2-2.4 3.5-3.4 2.3-1.5 5.1-2.6 8.5-3.5 3.2-1.1 7-1.5 11.2-1.5zm.2 42c7.6 0 11.3-4.5 11.3-13.5 0-4.7-.9-8.2-2.8-10.4-1.9-2.3-4.6-3.4-8.1-3.4-1.4 0-2.6.2-3.7.5s-2.1.7-2.9 1.2v24.2c.9.4 1.8.8 2.9 1.1 1 .2 2.1.3 3.3.3zM459 121c4.4 0 8.5.6 12.3 1.7 3.8 1.1 7 2.9 9.7 5.2 2.7 2.3 4.8 5.3 6.4 8.9 1.5 3.6 2.3 7.8 2.3 12.7 0 4.7-.7 8.8-2 12.3s-3.2 6.5-5.6 8.9c-2.4 2.4-5.3 4.2-8.7 5.3-3.4 1.2-7.2 1.8-11.4 1.8-3.2 0-6.1-.5-8.8-1.4v18.3c-.7.2-1.9.5-3.5.7-1.6.3-3.3.4-5 .4-1.6 0-3.1-.1-4.3-.3-1.3-.2-2.4-.7-3.2-1.3s-1.5-1.6-2-2.7c-.4-1.1-.7-2.6-.7-4.5v-52.8c0-2 .4-3.6 1.3-4.8.8-1.2 2-2.4 3.5-3.4 2.3-1.5 5.1-2.6 8.5-3.5 3.3-1.1 7.1-1.5 11.2-1.5zm.2 42c7.6 0 11.3-4.5 11.3-13.5 0-4.7-.9-8.2-2.8-10.4-1.9-2.3-4.6-3.4-8.1-3.4-1.4 0-2.6.2-3.7.5s-2.1.7-2.9 1.2v24.2c.9.4 1.8.8 2.9 1.1 1.1.2 2.2.3 3.3.3zM510.7 176c-.8.1-2 .3-3.6.6s-3.2.4-4.8.4c-1.6 0-3.1-.1-4.3-.3-1.3-.2-2.4-.7-3.2-1.3-.9-.7-1.6-1.6-2-2.7-.5-1.1-.7-2.6-.7-4.5v-63.8c.8-.1 2-.3 3.6-.6s3.2-.4 4.8-.4c1.6 0 3.1.1 4.3.3 1.3.2 2.4.7 3.2 1.3s1.6 1.6 2 2.7c.5 1.1.7 2.6.7 4.5V176zM537.3 121c4 0 7.6.4 10.8 1.2 3.3.8 6.1 2 8.4 3.7 2.3 1.6 4.1 3.7 5.3 6.3 1.2 2.5 1.9 5.5 1.9 9v24.6c0 1.9-.5 3.5-1.6 4.7-1.1 1.2-2.3 2.3-3.8 3.1-4.8 2.9-11.5 4.3-20.1 4.3-3.9 0-7.4-.4-10.5-1.1-3.1-.7-5.8-1.8-8-3.3-2.2-1.5-4-3.3-5.2-5.6-1.2-2.3-1.8-4.9-1.8-7.9 0-5.1 1.5-8.9 4.5-11.7 3-2.7 7.7-4.4 14-5.1l14.4-1.5v-.8c0-2.1-.9-3.6-2.8-4.6-1.9-.9-4.6-1.4-8.1-1.4-2.8 0-5.5.3-8.1.9-2.6.6-5 1.3-7.2 2.2-1-.7-1.8-1.7-2.4-3-.7-1.4-1-2.8-1-4.2 0-1.9.5-3.4 1.4-4.6.9-1.1 2.3-2.1 4.2-2.9 2.1-.8 4.6-1.4 7.5-1.8 2.9-.3 5.7-.5 8.2-.5zm.9 43.2c1.2 0 2.6-.1 4.1-.4 1.5-.3 2.6-.6 3.4-1V154l-7.9.7c-2.1.1-3.7.6-5.1 1.3-1.3.7-2 1.8-2 3.3 0 1.5.6 2.7 1.7 3.6 1.2.9 3.1 1.3 5.8 1.3zM566.6 104.5c.7-.2 1.9-.5 3.5-.7 1.6-.3 3.3-.4 5-.4 1.6 0 3.1.1 4.3.3 1.3.2 2.4.7 3.2 1.3s1.5 1.6 2 2.7c.4 1.1.7 2.6.7 4.5V123c1.8-.7 3.6-1.2 5.2-1.5 1.6-.3 3.5-.4 5.4-.4 3.5 0 6.9.6 10 1.9 3.2 1.2 5.9 3.1 8.4 5.4 2.4 2.4 4.3 5.3 5.7 8.9 1.4 3.5 2.1 7.6 2.1 12.2 0 4.8-.7 8.9-2.1 12.5-1.4 3.6-3.4 6.5-6 8.9-2.6 2.3-5.7 4.1-9.4 5.3-3.7 1.2-7.8 1.8-12.3 1.8-4.8 0-8.9-.6-12.3-1.7-3.4-1.1-6.2-2.5-8.6-4.2-3.2-2.3-4.8-5.2-4.8-8.8v-58.8zm25.7 58.6c3.4 0 6-1.2 7.9-3.5 1.9-2.3 2.8-5.7 2.8-10.3 0-4.6-1-8.1-2.9-10.3-1.9-2.3-4.5-3.4-7.7-3.4-1.5 0-2.7.1-3.8.4-1.1.3-2.2.7-3.5 1.3v24c.8.5 1.8.9 2.9 1.3 1.2.3 2.7.5 4.3.5zM669.8 160.1c0 5.6-2.1 9.9-6.3 13.1-4.2 3.2-10.3 4.7-18.5 4.7-3.1 0-5.9-.2-8.6-.7-2.6-.4-4.9-1.1-6.8-2-1.9-.9-3.3-2.1-4.4-3.5-1.1-1.4-1.6-3-1.6-5 0-1.8.4-3.2 1.1-4.5.7-1.2 1.6-2.2 2.6-3 2.1 1.2 4.6 2.2 7.3 3.1 2.8.9 5.9 1.4 9.5 1.4 2.3 0 4-.3 5.2-1s1.8-1.5 1.8-2.6c0-1-.4-1.8-1.3-2.4-.9-.6-2.3-1.1-4.4-1.4l-3.3-.7c-6.4-1.2-11.1-3.2-14.2-5.9-3.1-2.7-4.7-6.5-4.7-11.5 0-2.7.6-5.2 1.8-7.4 1.2-2.2 2.8-4 5-5.5 2.1-1.5 4.7-2.6 7.6-3.4 3-.8 6.3-1.2 9.8-1.2 2.7 0 5.3.2 7.6.6 2.4.4 4.5 1 6.2 1.8 1.8.8 3.2 1.9 4.2 3.1 1 1.3 1.5 2.8 1.5 4.6 0 1.7-.3 3.1-.9 4.3-.6 1.2-1.4 2.2-2.4 3-.6-.4-1.5-.8-2.6-1.2-1.2-.4-2.5-.8-3.9-1.1-1.4-.3-2.8-.6-4.2-.8-1.4-.2-2.7-.3-3.9-.3-2.4 0-4.3.3-5.6.8-1.3.5-2 1.4-2 2.6 0 .8.4 1.5 1.1 2 .7.5 2.1 1 4.2 1.4l3.4.8c7 1.6 12 3.8 15 6.7 3.2 3 4.7 6.7 4.7 11.1z"/>
    </g>
  </g>
  <g>
    <g fill="#4F4F4F">
      <path d="M670.1 117.6v3.9H669v-3.9h-1.4v-1h4v1h-1.5zM675.9 121.5V118l-1.2 3.5h-.7l-1.2-3.5v3.5h-1v-5h1.6l1 3.2 1-3.2h1.6v5h-1.1z"/>
    </g>
  </g>
</svg>
